<svg xmlns="http://www.w3.org/2000/svg" width="64" height="64" viewBox="0 0 64 64">
  <defs>
    <linearGradient id="g" x1="0" y1="0" x2="1" y2="1">
      <stop offset="0%" stop-color="#0ea5e9"/>
      <stop offset="100%" stop-color="#2563eb"/>
    </linearGradient>
  </defs>
  <rect width="64" height="64" rx="12" fill="url(#g)"/>
  <path d="M18 20h28a4 4 0 0 1 4 4l-2 20a8 8 0 0 1-8 7H24a8 8 0 0 1-8-7l-2-20a4 4 0 0 1 4-4z" fill="#fff" opacity="0.95"/>
  <path d="M24 20a8 8 0 0 1 16 0h6a14 14 0 0 0-28 0h6z" fill="#0b0c10" opacity="0.9"/>
</svg>
